<?xml version="1.0" standalone="no"?>
<!DOCTYPE svg PUBLIC "-//W3C//DTD SVG 1.0//EN" "http://www.w3.org/TR/2001/REC-SVG-20010904/DTD/svg10.dtd">
<svg xmlns="http://www.w3.org/2000/svg" xmlns:xlink="http://www.w3.org/1999/xlink" id="body_1" width="205" height="160">

<g transform="matrix(0.20000002 0 0 0.20000002 45 -0)">
	<g transform="matrix(0.1 0 -0 -0.1 0 800)">
        <path d="M10 4000L10 0L4005 0L8000 0L8000 4000L8000 8000L4005 8000L10 8000L10 4000zM4619 5030C 4909 4993 5125 4802 5198 4517C 5209 4475 5214 4438 5210 4435C 5197 4427 4704 4260 4693 4260C 4688 4260 4678 4282 4671 4309C 4645 4412 4550 4490 4450 4490C 4284 4490 4108 4246 4055 3941C 4023 3761 4046 3634 4123 3563C 4147 3541 4184 3517 4205 3510C 4263 3491 4358 3502 4420 3536C 4471 3564 4480 3576 4494 3633L4494 3633L4500 3660L4365 3660C 4244 3660 4230 3662 4230 3677C 4230 3693 4324 4131 4336 4173C 4341 4189 4370 4190 4756 4190C 4993 4190 5170 4186 5170 4181C 5170 4176 5129 3986 5079 3759L5079 3759L4989 3346L4948 3293C 4785 3081 4520 2950 4255 2950C 3968 2951 3704 3081 3565 3290C 3469 3435 3427 3587 3428 3790C 3431 4313 3718 4793 4130 4963C 4285 5027 4455 5050 4619 5030zM2320 4583C 2339 4351 2358 4159 2361 4156C 2363 4153 2459 4329 2573 4548C 2687 4766 2789 4960 2800 4978L2800 4978L2820 5010L3199 5010C 3408 5010 3581 5007 3583 5002C 3586 4998 3577 4945 3564 4885C 3551 4824 3524 4703 3505 4615C 3470 4451 3410 4174 3320 3760C 3292 3631 3244 3408 3214 3265C 3183 3122 3156 3002 3153 2998C 3151 2993 3016 2990 2854 2990C 2577 2990 2559 2991 2564 3008C 2578 3053 2760 3914 2758 3922C 2756 3926 2645 3719 2510 3460L2510 3460L2265 2990L2130 2992L1995 2995L1953 3445C 1930 3693 1911 3908 1911 3924C 1910 3940 1908 3951 1905 3949C 1901 3944 1700 3013 1700 2997C 1700 2993 1565 2990 1400 2990C 1235 2990 1100 2991 1100 2993C 1100 2995 1114 3059 1131 3136C 1147 3212 1176 3345 1195 3430C 1228 3584 1255 3709 1436 4540C 1488 4779 1533 4983 1536 4993C 1541 5009 1566 5010 1913 5008L1913 5008L2285 5005L2320 4583zM6330 4986C 6595 4918 6807 4710 6880 4448C 6908 4346 6909 4048 6881 3915C 6780 3443 6485 3122 6053 3018C 5971 2998 5932 2997 5477 2993C 5008 2989 4988 2989 4993 3007C 4996 3017 5094 3466 5211 4005C 5328 4544 5428 4991 5433 4998C 5450 5020 6241 5009 6330 4986z" stroke="none" fill="#000000" fill-rule="nonzero" />
        <path d="M3829 4683C 3816 4667 3817 4666 3833 4679C 3849 4692 3854 4700 3846 4700C 3844 4700 3836 4692 3829 4683z" stroke="none" fill="#000000" fill-rule="nonzero" />
        <path d="M3769 4613C 3756 4597 3757 4596 3773 4609C 3789 4622 3794 4630 3786 4630C 3784 4630 3776 4622 3769 4613z" stroke="none" fill="#000000" fill-rule="nonzero" />
        <path d="M3260 4941C 3213 4938 3184 4932 3196 4929C 3210 4925 3221 4908 3230 4874C 3237 4847 3255 4803 3269 4775C 3298 4717 3384 4630 3412 4630C 3426 4630 3429 4624 3426 4608C 3415 4555 3409 4505 3413 4510C 3419 4516 3496 4846 3506 4908L3506 4908L3513 4950L3429 4948C 3383 4947 3307 4944 3260 4941z" stroke="none" fill="#000000" fill-rule="nonzero" />
        <path d="M5915 4460C 5913 4457 5868 4253 5816 4008C 5763 3762 5717 3553 5713 3544C 5708 3529 5719 3528 5821 3532C 5963 3537 6007 3555 6093 3642C 6195 3745 6267 3911 6291 4100C 6311 4254 6274 4371 6188 4428C 6150 4452 6135 4455 6032 4460C 5969 4463 5917 4463 5915 4460z" stroke="none" fill="#000000" fill-rule="nonzero" />
	</g>
</g>
</svg>